<?xml version="1.0" encoding="utf-8"?>
<!-- Generator: Adobe Illustrator 27.5.0, SVG Export Plug-In . SVG Version: 6.00 Build 0)  -->
<svg version="1.1" xmlns="http://www.w3.org/2000/svg" xmlns:xlink="http://www.w3.org/1999/xlink" x="0px" y="0px"
	 viewBox="0 0 2200 2200" style="enable-background:new 0 0 2200 2200;" xml:space="preserve">
<g id="background">
	<rect style="fill:#FFFFFF;" width="2200" height="2200"/>
</g>
<g id="Objects">
	<g>
		<path style="fill:#DCDCE0;" d="M314.475,912.995c-11.273-9.901-22.028-20.378-32.22-31.383c-4.271-4.614-8.443-9.32-12.51-14.12
			c-63.766-75.201-102.22-172.541-102.22-278.863c0-238.288,193.174-431.462,431.462-431.462s431.462,193.174,431.462,431.462
			c0,106.323-38.455,203.662-102.221,278.863c-4.067,4.8-8.24,9.506-12.51,14.12c-10.192,11.005-20.947,21.482-32.22,31.383H314.475
			z"/>
		<path style="fill:#AAAAB2;" d="M883.498,912.995c-75.951,66.671-175.516,107.096-284.511,107.096s-208.561-40.424-284.511-107.096
			c63.888-101.413,167.52-167.352,284.511-167.352S819.61,811.583,883.498,912.995z"/>
		<circle style="fill:#AAAAB2;" cx="598.987" cy="499.269" r="174.263"/>
	</g>
	<g>
		<path d="M1003.762,1432.535c-22.127-52.313-53.801-99.293-94.142-139.635c-40.342-40.343-87.322-72.017-139.636-94.143
			c-54.164-22.91-111.695-34.526-170.997-34.526c-59.301,0-116.833,11.616-170.997,34.526
			c-52.312,22.127-99.292,53.801-139.635,94.143c-40.341,40.342-72.017,87.322-94.142,139.635
			c-22.91,54.164-34.526,111.696-34.526,170.997c0,52.941,9.318,104.704,27.694,153.848c17.755,47.482,43.455,91.249,76.385,130.084
			c4.113,4.854,8.399,9.691,12.74,14.378c10.335,11.161,21.369,21.908,32.794,31.944c0.001,0.001,0.003,0.003,0.004,0.004
			c80.106,70.318,182.985,109.043,289.683,109.043c106.7,0,209.578-38.726,289.684-109.043c0.002-0.001,0.003-0.003,0.004-0.004
			c11.423-10.034,22.457-20.781,32.797-31.945c4.343-4.692,8.629-9.528,12.737-14.376c32.931-38.837,58.63-82.603,76.386-130.085
			c18.377-49.144,27.694-100.906,27.694-153.848C1038.288,1544.23,1026.672,1486.698,1003.762,1432.535z M598.986,2027.155
			c-100.643,0-197.754-35.725-274.241-100.744c30.841-47.155,70.873-86.31,116.11-113.499
			c49.156-29.546,102.359-44.526,158.131-44.526s108.974,14.981,158.132,44.526c45.238,27.19,85.27,66.344,116.11,113.499
			C796.742,1991.43,699.629,2027.155,598.986,2027.155z M995.908,1751.888c-17.119,45.782-41.902,87.984-73.659,125.438
			c-3.962,4.675-8.095,9.339-12.282,13.862c-7.918,8.549-16.264,16.839-24.88,24.739c-31.96-48.274-73.251-88.421-119.893-116.454
			c-50.903-30.595-108.377-46.767-166.208-46.767s-115.304,16.172-166.207,46.767c-46.642,28.033-87.933,68.181-119.893,116.455
			c-8.617-7.901-16.962-16.192-24.877-24.739c-4.185-4.52-8.318-9.183-12.285-13.864c-31.756-37.452-56.539-79.655-73.658-125.437
			c-17.718-47.382-26.701-97.297-26.701-148.357c0-57.192,11.2-112.669,33.287-164.89c21.336-50.444,51.883-95.748,90.789-134.656
			c38.908-38.908,84.213-69.454,134.656-90.79c52.221-22.088,107.698-33.287,164.889-33.287c57.192,0,112.669,11.2,164.89,33.287
			c50.443,21.336,95.749,51.882,134.655,90.79c38.908,38.908,69.454,84.212,90.79,134.656
			c22.087,52.221,33.287,107.698,33.287,164.89C1022.61,1654.592,1013.626,1704.506,995.908,1751.888z"/>
		<path d="M598.987,1332.07c-100.412,0-182.103,81.691-182.103,182.102c0,100.412,81.691,182.102,182.103,182.102
			c100.411,0,182.102-81.691,182.102-182.102C781.09,1413.76,699.398,1332.07,598.987,1332.07z M598.987,1680.596
			c-91.767,0-166.425-74.657-166.425-166.424c0-91.766,74.658-166.424,166.425-166.424c91.766,0,166.424,74.657,166.424,166.424
			C765.411,1605.938,690.753,1680.596,598.987,1680.596z"/>
	</g>
	<g>
		<path d="M1177.39,588.629c0,51.056,8.982,100.97,26.698,148.353c17.123,45.781,41.906,87.99,73.667,125.44
			c3.953,4.67,8.086,9.34,12.274,13.864c7.918,8.545,16.261,16.832,24.884,24.738c31.962-48.268,73.252-88.416,119.896-116.458
			c50.899-30.584,108.372-46.767,166.204-46.767c57.831,0,115.304,16.182,166.204,46.767
			c46.644,28.042,87.934,68.19,119.896,116.458c8.623-7.906,16.967-16.194,24.884-24.738c4.188-4.524,8.321-9.194,12.274-13.864
			c31.76-37.449,56.543-79.658,73.667-125.44c17.717-47.383,26.698-97.297,26.698-148.353c0-57.193-11.199-112.673-33.283-164.893
			c-21.345-50.44-51.885-95.74-90.79-134.656c-38.916-38.905-84.216-69.445-134.656-90.79
			c-52.221-22.084-107.7-33.283-164.893-33.283s-112.673,11.199-164.893,33.283c-50.44,21.345-95.74,51.885-134.656,90.79
			c-38.905,38.916-69.445,84.216-90.79,134.656C1188.589,475.956,1177.39,531.436,1177.39,588.629z M1418.907,499.272
			c0-100.41,81.697-182.106,182.106-182.106s182.106,81.696,182.106,182.106s-81.696,182.095-182.106,182.095
			S1418.907,599.682,1418.907,499.272z M1434.585,499.272c0,91.764,74.664,166.416,166.428,166.416s166.428-74.652,166.428-166.416
			s-74.663-166.428-166.428-166.428S1434.585,407.508,1434.585,499.272z M1326.773,911.506
			c76.489,65.021,173.595,100.746,274.24,100.746s197.751-35.725,274.24-100.746c-30.842-47.148-70.867-86.31-116.111-113.501
			c-49.152-29.543-102.358-44.527-158.129-44.527s-108.977,14.984-158.129,44.527
			C1397.64,825.196,1357.615,864.358,1326.773,911.506z"/>
	</g>
	<g>
		<path style="fill:#C5C5D3;" d="M1885.525,1927.898c11.273-9.901,22.028-20.378,32.22-31.383c4.271-4.614,8.443-9.32,12.51-14.12
			c63.766-75.201,102.22-172.541,102.22-278.863c0-238.288-193.174-431.462-431.462-431.462s-431.462,193.174-431.462,431.462
			c0,106.323,38.455,203.662,102.221,278.863c4.067,4.8,8.24,9.506,12.51,14.12c10.192,11.005,20.947,21.482,32.22,31.383H1885.525z
			"/>
		<path style="fill:#5A5AE5;" d="M1316.502,1927.898c75.951,66.671,175.516,107.096,284.511,107.096s208.561-40.425,284.511-107.096
			c-63.888-101.413-167.52-167.352-284.511-167.352C1484.022,1760.547,1380.39,1826.485,1316.502,1927.898z"/>
		<circle style="fill:#5A5AE5;" cx="1601.013" cy="1514.172" r="174.263"/>
		<g>
			<path d="M1161.712,1603.531c0,52.941,9.318,104.704,27.694,153.848c17.755,47.482,43.455,91.25,76.387,130.086
				c4.097,4.835,8.383,9.672,12.735,14.375c10.337,11.162,21.372,21.91,32.798,31.948c0,0,0,0,0,0
				c0.001,0.001,0.001,0.001,0.002,0.002c80.106,70.317,182.985,109.043,289.684,109.043c106.7,0,209.577-38.726,289.683-109.043
				c0.002-0.001,0.003-0.003,0.005-0.005c11.429-10.039,22.463-20.786,32.795-31.944c4.363-4.713,8.649-9.55,12.739-14.378
				c32.93-38.835,58.629-82.602,76.385-130.084c18.377-49.144,27.694-100.907,27.694-153.848
				c0-59.301-11.616-116.833-34.526-170.997c-22.127-52.312-53.801-99.292-94.143-139.635
				c-40.342-40.341-87.322-72.017-139.634-94.143c-54.165-22.91-111.696-34.526-170.997-34.526
				c-59.302,0-116.833,11.616-170.997,34.526c-52.314,22.126-99.293,53.802-139.636,94.143
				c-40.341,40.343-72.016,87.322-94.142,139.635C1173.328,1486.698,1161.712,1544.23,1161.712,1603.531z M1326.772,1926.411
				c30.841-47.155,70.873-86.31,116.11-113.5c49.157-29.545,102.36-44.526,158.132-44.526c55.771,0,108.974,14.981,158.131,44.526
				c45.238,27.19,85.27,66.345,116.11,113.5c-76.485,65.018-173.597,100.744-274.241,100.744
				C1500.371,2027.155,1403.258,1991.43,1326.772,1926.411z M1177.39,1603.531c0-57.191,11.2-112.669,33.287-164.889
				c21.336-50.443,51.883-95.749,90.79-134.656c38.906-38.906,84.212-69.453,134.655-90.789
				c52.222-22.088,107.698-33.287,164.89-33.287c57.191,0,112.668,11.2,164.889,33.287c50.444,21.336,95.749,51.883,134.656,90.789
				c38.908,38.908,69.454,84.213,90.79,134.656c22.088,52.221,33.287,107.698,33.287,164.889c0,51.06-8.984,100.974-26.701,148.357
				c-17.119,45.781-41.902,87.985-73.659,125.437c-3.946,4.657-8.078,9.321-12.284,13.865c-7.912,8.544-16.258,16.834-24.877,24.738
				c-31.96-48.274-73.251-88.421-119.893-116.455c-50.903-30.595-108.377-46.767-166.208-46.767
				c-57.831,0-115.305,16.172-166.208,46.767c-46.642,28.033-87.933,68.181-119.894,116.454
				c-8.618-7.902-16.963-16.193-24.879-24.74c-4.196-4.533-8.328-9.198-12.28-13.861c-31.76-37.454-56.542-79.658-73.661-125.439
				C1186.375,1704.506,1177.39,1654.592,1177.39,1603.531z"/>
			<path d="M1418.91,1514.173c0,100.411,81.691,182.102,182.103,182.102c100.411,0,182.102-81.691,182.102-182.102
				s-81.691-182.102-182.102-182.102C1500.602,1332.07,1418.91,1413.761,1418.91,1514.173z M1434.589,1514.173
				c0-91.766,74.658-166.424,166.425-166.424c91.766,0,166.423,74.658,166.423,166.424s-74.657,166.424-166.423,166.424
				C1509.247,1680.596,1434.589,1605.938,1434.589,1514.173z"/>
		</g>
	</g>
</g>
</svg>
