<svg xmlns="http://www.w3.org/2000/svg" xmlns:v="https://svgstorm.com"
viewBox = "0 0 1084 255"
width="1084"
height="255">
<g fill="None" fill-opacity="0.0" stroke="#000000" stroke-opacity="0.01" stroke-width="0.3"><path d="
M 0.00 255.00 
L 1084.00 255.00
L 1084.00 0.00
L 0.00 0.00
L 0.00 255.00
M 179.00 24.00 
C 195.97 68.45 212.76 110.49 234.00 153.00
C 222.35 156.06 215.02 156.63 203.00 160.00
C 202.23 153.09 199.88 144.46 196.65 137.30 C 193.41 130.14 189.58 118.44 185.69 110.31 C 181.81 102.17 179.28 93.07 174.69 84.31 C 170.11 75.54 169.74 63.50 161.00 58.00
C 157.93 68.95 155.20 73.79 151.02 84.02 C 146.85 94.26 142.96 102.72 139.23 111.23 C 135.50 119.74 133.15 128.90 128.68 137.68 C 124.21 146.46 123.62 153.74 118.68 162.68 C 113.73 171.61 113.84 186.34 103.98 187.02 C 94.12 187.71 87.36 192.62 76.00 194.00
C 79.87 183.57 82.16 180.81 86.30 171.30 C 90.44 161.78 93.91 152.55 97.13 145.08 C 100.35 137.61 106.55 126.42 109.30 118.30 C 112.06 110.19 117.82 100.17 120.92 90.92 C 124.03 81.68 127.00 73.66 131.77 62.77 C 136.54 51.88 140.09 44.41 144.31 32.31 C 148.53 20.21 166.81 24.28 179.00 24.00
M 363.00 210.00 
C 363.73 149.38 361.46 87.40 362.00 26.00
C 369.00 30.87 388.59 20.55 388.00 32.00 C 387.40 43.45 386.78 54.32 387.00 66.00 C 387.22 77.68 387.07 89.32 387.00 101.00 C 386.93 112.68 387.45 123.21 387.00 135.00 C 386.55 146.79 388.25 157.04 388.00 169.00 C 387.75 180.96 384.98 187.91 387.00 201.00 C 389.02 214.09 371.81 208.86 363.00 210.00
M 298.00 43.00 
C 299.16 51.12 299.86 58.26 299.00 67.00 C 298.14 75.74 298.60 84.11 309.00 82.00 C 319.40 79.89 324.11 83.58 334.00 82.00
C 334.58 88.60 332.79 95.84 335.00 102.00
C 322.39 103.13 310.28 99.88 299.00 101.00
C 299.57 117.38 300.65 132.41 301.00 148.00
C 292.74 148.61 283.82 146.74 276.00 149.00
C 273.68 133.50 275.65 116.92 275.00 101.00
C 263.86 99.07 255.57 107.22 255.00 93.00 C 254.43 78.78 263.12 82.02 275.00 82.00
C 273.15 69.56 275.93 55.25 275.00 43.00
C 282.15 44.78 290.83 44.45 298.00 43.00
M 955.00 46.00 
C 953.03 54.00 954.32 63.02 955.00 71.00 C 955.67 78.99 954.97 89.78 954.07 97.07 C 953.17 104.37 952.87 116.15 958.30 110.30 C 963.73 104.45 965.26 100.34 972.08 97.08 C 978.90 93.82 984.18 90.14 991.23 89.79 C 998.28 89.43 1004.64 89.58 1010.10 91.91 C 1015.56 94.23 1023.32 96.37 1028.23 100.77 C 1033.14 105.17 1038.00 108.65 1041.30 114.70 C 1044.60 120.75 1048.15 124.72 1049.12 129.90 C 1050.08 135.08 1052.22 140.32 1052.02 147.03 C 1051.82 153.74 1052.75 160.17 1049.88 165.90 C 1047.01 171.63 1050.33 172.80 1045.23 180.23 C 1040.13 187.66 1028.14 200.64 1020.30 203.31 C 1012.47 205.98 1010.89 208.48 1003.92 209.06 C 996.94 209.64 992.78 209.84 985.90 208.09 C 979.02 206.35 976.39 204.48 969.77 201.23 C 963.15 197.98 962.69 191.22 956.70 187.30 C 950.70 183.39 953.85 198.84 954.00 205.00 C 954.15 211.17 936.81 206.54 932.00 209.00
C 929.31 199.07 931.91 190.25 932.00 180.00 C 932.09 169.75 931.98 158.54 932.00 148.00 C 932.02 137.46 932.05 126.75 932.00 116.00 C 931.95 105.25 932.16 96.16 932.00 85.00 C 931.84 73.84 932.13 65.79 931.00 54.00 C 929.87 42.21 945.93 46.49 955.00 46.00
M 649.00 91.00 
C 646.43 97.91 642.91 104.67 639.00 111.00
C 628.25 105.01 621.26 99.98 611.08 98.87 C 600.90 97.76 585.56 96.63 581.60 107.75 C 577.64 118.86 584.78 126.86 594.92 129.13 C 605.05 131.40 613.30 135.97 624.22 139.78 C 635.14 143.59 643.86 151.14 647.79 160.23 C 651.71 169.32 651.42 181.98 646.08 192.08 C 640.74 202.18 629.82 207.54 620.10 210.12 C 610.38 212.70 598.20 212.99 587.99 210.01 C 577.78 207.03 571.70 204.33 559.77 200.23 C 547.84 196.13 552.17 183.18 560.00 174.00
C 567.23 181.15 578.43 184.38 586.22 188.22 C 594.02 192.06 604.26 190.95 613.75 190.40 C 623.24 189.84 632.29 176.71 624.23 166.77 C 616.17 156.83 608.93 158.64 598.92 155.93 C 588.91 153.22 578.42 149.15 568.77 143.23 C 559.12 137.31 556.73 127.22 557.00 117.00 C 557.27 106.78 559.37 98.12 568.25 90.25 C 577.13 82.38 584.89 80.10 594.03 78.98 C 603.17 77.86 613.56 77.97 621.68 80.66 C 629.80 83.35 639.57 85.46 649.00 91.00
M 528.00 209.00 
C 519.76 206.45 510.05 209.05 502.00 208.00
C 506.12 198.49 501.01 189.88 494.25 198.25 C 487.48 206.62 481.63 206.06 474.11 210.11 C 466.59 214.15 459.44 210.78 451.00 211.00 C 442.56 211.22 436.48 207.58 428.75 203.25 C 421.02 198.91 418.93 190.81 417.02 183.98 C 415.12 177.14 414.40 170.42 416.91 163.90 C 419.42 157.39 422.00 150.49 428.70 145.70 C 435.41 140.92 442.63 137.30 449.77 135.43 C 456.91 133.55 469.00 135.88 478.00 135.00 C 487.00 134.12 492.19 132.90 502.00 134.00
C 501.77 124.91 501.81 119.68 498.69 112.30 C 495.57 104.93 487.17 102.04 480.77 101.21 C 474.37 100.38 465.42 97.20 458.97 100.02 C 452.53 102.85 444.36 105.01 437.77 109.77 C 431.18 114.53 426.34 102.56 424.69 96.31 C 423.05 90.05 436.65 85.96 442.07 84.07 C 447.50 82.18 453.36 81.12 459.08 79.94 C 464.81 78.76 477.24 76.27 484.08 78.07 C 490.92 79.86 496.38 82.55 503.25 85.75 C 510.13 88.94 514.70 94.09 518.92 101.08 C 523.15 108.06 523.88 112.60 525.00 120.00 C 526.12 127.40 527.70 137.23 527.00 147.00 C 526.30 156.77 527.22 167.96 527.00 178.00 C 526.78 188.04 526.48 199.28 528.00 209.00
M 773.00 112.00 
C 768.46 117.61 761.92 121.50 756.00 125.00
C 740.70 108.09 717.77 103.13 699.92 117.92 C 682.06 132.70 682.58 164.81 699.75 180.25 C 716.93 195.68 743.08 192.03 757.00 173.00
C 762.62 176.29 767.16 181.32 773.00 184.00
C 758.36 210.05 729.23 213.63 704.98 206.02 C 680.72 198.42 663.06 169.45 664.00 147.00 C 664.94 124.55 682.70 100.13 706.08 92.94 C 729.46 85.74 754.31 89.40 773.00 112.00
M 814.00 91.00 
C 815.48 106.57 813.74 126.54 813.02 142.02 C 812.31 157.51 810.53 174.70 822.75 184.25 C 834.98 193.79 848.27 191.33 860.25 185.24 C 872.22 179.16 877.91 160.84 875.00 146.00 C 872.09 131.16 879.43 106.48 874.00 92.00
C 881.93 92.61 890.51 90.75 898.00 93.00
C 896.96 129.95 895.91 170.27 898.00 208.00
C 891.03 207.58 882.37 210.54 875.00 208.00
C 877.21 202.15 875.42 195.26 876.00 189.00
C 868.85 191.32 859.78 204.89 852.10 207.10 C 844.42 209.31 833.08 212.33 824.78 209.78 C 816.48 207.23 808.64 204.14 801.75 195.25 C 794.86 186.35 793.69 180.16 792.35 171.30 C 791.01 162.45 789.98 147.29 792.26 135.26 C 794.54 123.23 792.10 105.81 793.00 93.00
C 802.17 94.02 806.92 91.68 814.00 91.00
M 185.00 136.00 
C 180.06 139.69 172.85 140.19 166.00 140.00
C 164.81 147.41 163.72 150.94 163.00 158.00
C 157.00 154.48 163.60 144.09 159.22 140.78 C 154.85 137.47 147.52 140.07 142.00 138.00
C 143.72 132.02 156.94 138.99 159.74 133.74 C 162.54 128.50 158.32 121.59 162.00 116.00
C 166.64 120.18 160.06 130.50 164.78 134.22 C 169.50 137.94 179.39 133.49 185.00 136.00
M 30.00 206.00 
C 26.57 205.27 23.62 204.04 20.00 203.00
C 18.50 202.86 17.56 201.97 16.00 202.00
C 16.47 200.66 19.58 200.43 20.00 202.00
C 23.87 202.39 26.32 202.50 30.00 203.00
C 87.54 210.90 132.13 191.66 179.70 178.65 C 227.27 165.63 272.19 148.03 334.00 158.00
C 294.14 157.10 255.35 164.06 224.32 174.32 C 193.29 184.58 167.80 193.40 136.97 201.02 C 106.15 208.64 66.21 214.52 30.00 206.00
M 301.00 168.00 
C 298.82 176.86 301.38 186.42 311.02 188.98 C 320.67 191.53 325.69 186.65 335.00 183.00
C 337.33 192.25 343.42 202.19 331.92 206.92 C 320.42 211.65 313.98 212.80 305.96 211.03 C 297.94 209.25 288.24 209.26 282.08 199.92 C 275.93 190.57 276.36 182.08 274.00 172.00
C 282.28 171.42 290.81 169.17 301.00 168.00
M 244.00 179.00 
C 247.19 189.26 252.49 198.83 256.00 209.00
C 248.06 209.08 232.62 205.57 223.00 210.00
C 221.06 202.13 217.72 197.10 215.00 190.00
C 224.48 184.65 234.24 184.78 244.00 179.00 Z"/>
</g>
<g fill="None" fill-opacity="0.0" stroke="#000000" stroke-opacity="0.98" stroke-width="0.3"><path d="
M 179.00 24.00 
C 166.81 24.28 148.53 20.21 144.31 32.31 C 140.09 44.41 136.54 51.88 131.77 62.77 C 127.00 73.66 124.03 81.68 120.92 90.92 C 117.82 100.17 112.06 110.19 109.30 118.30 C 106.55 126.42 100.35 137.61 97.13 145.08 C 93.91 152.55 90.44 161.78 86.30 171.30 C 82.16 180.81 79.87 183.57 76.00 194.00
C 87.36 192.62 94.12 187.71 103.98 187.02 C 113.84 186.34 113.73 171.61 118.68 162.68 C 123.62 153.74 124.21 146.46 128.68 137.68 C 133.15 128.90 135.50 119.74 139.23 111.23 C 142.96 102.72 146.85 94.26 151.02 84.02 C 155.20 73.79 157.93 68.95 161.00 58.00
C 169.74 63.50 170.11 75.54 174.69 84.31 C 179.28 93.07 181.81 102.17 185.69 110.31 C 189.58 118.44 193.41 130.14 196.65 137.30 C 199.88 144.46 202.23 153.09 203.00 160.00
C 215.02 156.63 222.35 156.06 234.00 153.00
C 212.76 110.49 195.97 68.45 179.00 24.00 Z"/>
</g>
<g fill="None" fill-opacity="0.0" stroke="#000000" stroke-opacity="0.98" stroke-width="0.3"><path d="
M 363.00 210.00 
C 371.81 208.86 389.02 214.09 387.00 201.00 C 384.98 187.91 387.75 180.96 388.00 169.00 C 388.25 157.04 386.55 146.79 387.00 135.00 C 387.45 123.21 386.93 112.68 387.00 101.00 C 387.07 89.32 387.22 77.68 387.00 66.00 C 386.78 54.32 387.40 43.45 388.00 32.00 C 388.59 20.55 369.00 30.87 362.00 26.00
C 361.46 87.40 363.73 149.38 363.00 210.00 Z"/>
</g>
<g fill="None" fill-opacity="0.0" stroke="#000000" stroke-opacity="0.98" stroke-width="0.3"><path d="
M 298.00 43.00 
C 290.83 44.45 282.15 44.78 275.00 43.00
C 275.93 55.25 273.15 69.56 275.00 82.00
C 263.12 82.02 254.43 78.78 255.00 93.00 C 255.57 107.22 263.86 99.07 275.00 101.00
C 275.65 116.92 273.68 133.50 276.00 149.00
C 283.82 146.74 292.74 148.61 301.00 148.00
C 300.65 132.41 299.57 117.38 299.00 101.00
C 310.28 99.88 322.39 103.13 335.00 102.00
C 332.79 95.84 334.58 88.60 334.00 82.00
C 324.11 83.58 319.40 79.89 309.00 82.00 C 298.60 84.11 298.14 75.74 299.00 67.00 C 299.86 58.26 299.16 51.12 298.00 43.00 Z"/>
</g>
<g fill="None" fill-opacity="0.0" stroke="#000000" stroke-opacity="0.98" stroke-width="0.3"><path d="
M 955.00 46.00 
C 945.93 46.49 929.87 42.21 931.00 54.00 C 932.13 65.79 931.84 73.84 932.00 85.00 C 932.16 96.16 931.95 105.25 932.00 116.00 C 932.05 126.75 932.02 137.46 932.00 148.00 C 931.98 158.54 932.09 169.75 932.00 180.00 C 931.91 190.25 929.31 199.07 932.00 209.00
C 936.81 206.54 954.15 211.17 954.00 205.00 C 953.85 198.84 950.70 183.39 956.70 187.30 C 962.69 191.22 963.15 197.98 969.77 201.23 C 976.39 204.48 979.02 206.35 985.90 208.09 C 992.78 209.84 996.94 209.64 1003.92 209.06 C 1010.89 208.48 1012.47 205.98 1020.30 203.31 C 1028.14 200.64 1040.13 187.66 1045.23 180.23 C 1050.33 172.80 1047.01 171.63 1049.88 165.90 C 1052.75 160.17 1051.82 153.74 1052.02 147.03 C 1052.22 140.32 1050.08 135.08 1049.12 129.90 C 1048.15 124.72 1044.60 120.75 1041.30 114.70 C 1038.00 108.65 1033.14 105.17 1028.23 100.77 C 1023.32 96.37 1015.56 94.23 1010.10 91.91 C 1004.64 89.58 998.28 89.43 991.23 89.79 C 984.18 90.14 978.90 93.82 972.08 97.08 C 965.26 100.34 963.73 104.45 958.30 110.30 C 952.87 116.15 953.17 104.37 954.07 97.07 C 954.97 89.78 955.67 78.99 955.00 71.00 C 954.32 63.02 953.03 54.00 955.00 46.00
M 987.00 109.00 
C 1002.77 108.39 1020.32 117.02 1025.40 132.75 C 1030.48 148.47 1033.45 166.32 1019.25 180.25 C 1005.04 194.17 986.60 194.20 970.77 185.23 C 954.95 176.26 951.21 157.71 953.57 141.23 C 955.94 124.75 971.00 109.62 987.00 109.00 Z"/>
</g>
<g fill="None" fill-opacity="0.0" stroke="#000000" stroke-opacity="0.98" stroke-width="0.3"><path d="
M 649.00 91.00 
C 639.57 85.46 629.80 83.35 621.68 80.66 C 613.56 77.97 603.17 77.86 594.03 78.98 C 584.89 80.10 577.13 82.38 568.25 90.25 C 559.37 98.12 557.27 106.78 557.00 117.00 C 556.73 127.22 559.12 137.31 568.77 143.23 C 578.42 149.15 588.91 153.22 598.92 155.93 C 608.93 158.64 616.17 156.83 624.23 166.77 C 632.29 176.71 623.24 189.84 613.75 190.40 C 604.26 190.95 594.02 192.06 586.22 188.22 C 578.43 184.38 567.23 181.15 560.00 174.00
C 552.17 183.18 547.84 196.13 559.77 200.23 C 571.70 204.33 577.78 207.03 587.99 210.01 C 598.20 212.99 610.38 212.70 620.10 210.12 C 629.82 207.54 640.74 202.18 646.08 192.08 C 651.42 181.98 651.71 169.32 647.79 160.23 C 643.86 151.14 635.14 143.59 624.22 139.78 C 613.30 135.97 605.05 131.40 594.92 129.13 C 584.78 126.86 577.64 118.86 581.60 107.75 C 585.56 96.63 600.90 97.76 611.08 98.87 C 621.26 99.98 628.25 105.01 639.00 111.00
C 642.91 104.67 646.43 97.91 649.00 91.00 Z"/>
</g>
<g fill="None" fill-opacity="0.0" stroke="#000000" stroke-opacity="0.98" stroke-width="0.3"><path d="
M 528.00 209.00 
C 526.48 199.28 526.78 188.04 527.00 178.00 C 527.22 167.96 526.30 156.77 527.00 147.00 C 527.70 137.23 526.12 127.40 525.00 120.00 C 523.88 112.60 523.15 108.06 518.92 101.08 C 514.70 94.09 510.13 88.94 503.25 85.75 C 496.38 82.55 490.92 79.86 484.08 78.07 C 477.24 76.27 464.81 78.76 459.08 79.94 C 453.36 81.12 447.50 82.18 442.07 84.07 C 436.65 85.96 423.05 90.05 424.69 96.31 C 426.34 102.56 431.18 114.53 437.77 109.77 C 444.36 105.01 452.53 102.85 458.97 100.02 C 465.42 97.20 474.37 100.38 480.77 101.21 C 487.17 102.04 495.57 104.93 498.69 112.30 C 501.81 119.68 501.77 124.91 502.00 134.00
C 492.19 132.90 487.00 134.12 478.00 135.00 C 469.00 135.88 456.91 133.55 449.77 135.43 C 442.63 137.30 435.41 140.92 428.70 145.70 C 422.00 150.49 419.42 157.39 416.91 163.90 C 414.40 170.42 415.12 177.14 417.02 183.98 C 418.93 190.81 421.02 198.91 428.75 203.25 C 436.48 207.58 442.56 211.22 451.00 211.00 C 459.44 210.78 466.59 214.15 474.11 210.11 C 481.63 206.06 487.48 206.62 494.25 198.25 C 501.01 189.88 506.12 198.49 502.00 208.00
C 510.05 209.05 519.76 206.45 528.00 209.00
M 503.00 150.00 
C 505.22 163.60 500.07 182.95 486.77 188.77 C 473.47 194.59 455.92 196.16 443.77 186.23 C 431.62 176.30 440.77 155.09 454.23 152.79 C 467.68 150.48 486.82 149.82 503.00 150.00 Z"/>
</g>
<g fill="None" fill-opacity="0.0" stroke="#000000" stroke-opacity="0.98" stroke-width="0.3"><path d="
M 773.00 112.00 
C 754.31 89.40 729.46 85.74 706.08 92.94 C 682.70 100.13 664.94 124.55 664.00 147.00 C 663.06 169.45 680.72 198.42 704.98 206.02 C 729.23 213.63 758.36 210.05 773.00 184.00
C 767.16 181.32 762.62 176.29 757.00 173.00
C 743.08 192.03 716.93 195.68 699.75 180.25 C 682.58 164.81 682.06 132.70 699.92 117.92 C 717.77 103.13 740.70 108.09 756.00 125.00
C 761.92 121.50 768.46 117.61 773.00 112.00 Z"/>
</g>
<g fill="None" fill-opacity="0.0" stroke="#000000" stroke-opacity="0.98" stroke-width="0.3"><path d="
M 814.00 91.00 
C 806.92 91.68 802.17 94.02 793.00 93.00
C 792.10 105.81 794.54 123.23 792.26 135.26 C 789.98 147.29 791.01 162.45 792.35 171.30 C 793.69 180.16 794.86 186.35 801.75 195.25 C 808.64 204.14 816.48 207.23 824.78 209.78 C 833.08 212.33 844.42 209.31 852.10 207.10 C 859.78 204.89 868.85 191.32 876.00 189.00
C 875.42 195.26 877.21 202.15 875.00 208.00
C 882.37 210.54 891.03 207.58 898.00 208.00
C 895.91 170.27 896.96 129.95 898.00 93.00
C 890.51 90.75 881.93 92.61 874.00 92.00
C 879.43 106.48 872.09 131.16 875.00 146.00 C 877.91 160.84 872.22 179.16 860.25 185.24 C 848.27 191.33 834.98 193.79 822.75 184.25 C 810.53 174.70 812.31 157.51 813.02 142.02 C 813.74 126.54 815.48 106.57 814.00 91.00 Z"/>
</g>
<g fill="None" fill-opacity="0.0" stroke="#000000" stroke-opacity="0.03" stroke-width="0.3"><path d="
M 987.00 109.00 
C 971.00 109.62 955.94 124.75 953.57 141.23 C 951.21 157.71 954.95 176.26 970.77 185.23 C 986.60 194.20 1005.04 194.17 1019.25 180.25 C 1033.45 166.32 1030.48 148.47 1025.40 132.75 C 1020.32 117.02 1002.77 108.39 987.00 109.00 Z"/>
</g>
<g fill="None" fill-opacity="0.0" stroke="#000000" stroke-opacity="0.89" stroke-width="0.3"><path d="
M 185.00 136.00 
C 179.39 133.49 169.50 137.94 164.78 134.22 C 160.06 130.50 166.64 120.18 162.00 116.00
C 158.32 121.59 162.54 128.50 159.74 133.74 C 156.94 138.99 143.72 132.02 142.00 138.00
C 147.52 140.07 154.85 137.47 159.22 140.78 C 163.60 144.09 157.00 154.48 163.00 158.00
C 163.72 150.94 164.81 147.41 166.00 140.00
C 172.85 140.19 180.06 139.69 185.00 136.00 Z"/>
</g>
<g fill="None" fill-opacity="0.0" stroke="#000000" stroke-opacity="0.04" stroke-width="0.3"><path d="
M 503.00 150.00 
C 486.82 149.82 467.68 150.48 454.23 152.79 C 440.77 155.09 431.62 176.30 443.77 186.23 C 455.92 196.16 473.47 194.59 486.77 188.77 C 500.07 182.95 505.22 163.60 503.00 150.00 Z"/>
</g>
<g fill="None" fill-opacity="0.0" stroke="#000000" stroke-opacity="0.95" stroke-width="0.3"><path d="
M 30.00 203.00 
C 30.49 203.58 29.60 205.34 30.00 206.00
C 66.21 214.52 106.15 208.64 136.97 201.02 C 167.80 193.40 193.29 184.58 224.32 174.32 C 255.35 164.06 294.14 157.10 334.00 158.00
C 272.19 148.03 227.27 165.63 179.70 178.65 C 132.13 191.66 87.54 210.90 30.00 203.00 Z"/>
</g>
<g fill="None" fill-opacity="0.0" stroke="#000000" stroke-opacity="0.96" stroke-width="0.3"><path d="
M 301.00 168.00 
C 290.81 169.17 282.28 171.42 274.00 172.00
C 276.36 182.08 275.93 190.57 282.08 199.92 C 288.24 209.26 297.94 209.25 305.96 211.03 C 313.98 212.80 320.42 211.65 331.92 206.92 C 343.42 202.19 337.33 192.25 335.00 183.00
C 325.69 186.65 320.67 191.53 311.02 188.98 C 301.38 186.42 298.82 176.86 301.00 168.00 Z"/>
</g>
<g fill="None" fill-opacity="0.0" stroke="#000000" stroke-opacity="0.96" stroke-width="0.3"><path d="
M 244.00 179.00 
C 234.24 184.78 224.48 184.65 215.00 190.00
C 217.72 197.10 221.06 202.13 223.00 210.00
C 232.62 205.57 248.06 209.08 256.00 209.00
C 252.49 198.83 247.19 189.26 244.00 179.00 Z"/>
</g>
<g fill="None" fill-opacity="0.0" stroke="#000000" stroke-opacity="0.32" stroke-width="0.3"><path d="
M 20.00 203.00 
C 19.87 202.96 20.00 202.00 20.00 202.00
C 19.58 200.43 16.47 200.66 16.00 202.00
C 17.56 201.97 18.50 202.86 20.00 203.00 Z"/>
</g>
<g fill="None" fill-opacity="0.0" stroke="#000000" stroke-opacity="0.53" stroke-width="0.3"><path d="
M 20.00 203.00 
C 23.62 204.04 26.57 205.27 30.00 206.00
C 29.60 205.34 30.49 203.58 30.00 203.00
C 26.32 202.50 23.87 202.39 20.00 202.00
C 20.00 202.00 19.87 202.96 20.00 203.00 Z"/>
</g>
<g fill="#000000" fill-opacity="0.01" stroke="None">
<path d="
M 0.00 255.00 
L 1084.00 255.00
L 1084.00 0.00
L 0.00 0.00
L 0.00 255.00
M 179.00 24.00 
C 195.97 68.45 212.76 110.49 234.00 153.00
C 222.35 156.06 215.02 156.63 203.00 160.00
C 202.23 153.09 199.88 144.46 196.65 137.30 C 193.41 130.14 189.58 118.44 185.69 110.31 C 181.81 102.17 179.28 93.07 174.69 84.31 C 170.11 75.54 169.74 63.50 161.00 58.00
C 157.93 68.95 155.20 73.79 151.02 84.02 C 146.85 94.26 142.96 102.72 139.23 111.23 C 135.50 119.74 133.15 128.90 128.68 137.68 C 124.21 146.46 123.62 153.74 118.68 162.68 C 113.73 171.61 113.84 186.34 103.98 187.02 C 94.12 187.71 87.36 192.62 76.00 194.00
C 79.87 183.57 82.16 180.81 86.30 171.30 C 90.44 161.78 93.91 152.55 97.13 145.08 C 100.35 137.61 106.55 126.42 109.30 118.30 C 112.06 110.19 117.82 100.17 120.92 90.92 C 124.03 81.68 127.00 73.66 131.77 62.77 C 136.54 51.88 140.09 44.41 144.31 32.31 C 148.53 20.21 166.81 24.28 179.00 24.00
M 363.00 210.00 
C 363.73 149.38 361.46 87.40 362.00 26.00
C 369.00 30.87 388.59 20.55 388.00 32.00 C 387.40 43.45 386.78 54.32 387.00 66.00 C 387.22 77.68 387.07 89.32 387.00 101.00 C 386.93 112.68 387.45 123.21 387.00 135.00 C 386.55 146.79 388.25 157.04 388.00 169.00 C 387.75 180.96 384.98 187.91 387.00 201.00 C 389.02 214.09 371.81 208.86 363.00 210.00
M 298.00 43.00 
C 299.16 51.12 299.86 58.26 299.00 67.00 C 298.14 75.74 298.60 84.11 309.00 82.00 C 319.40 79.89 324.11 83.58 334.00 82.00
C 334.58 88.60 332.79 95.84 335.00 102.00
C 322.39 103.13 310.28 99.88 299.00 101.00
C 299.57 117.38 300.65 132.41 301.00 148.00
C 292.74 148.61 283.82 146.74 276.00 149.00
C 273.68 133.50 275.65 116.92 275.00 101.00
C 263.86 99.07 255.57 107.22 255.00 93.00 C 254.43 78.78 263.12 82.02 275.00 82.00
C 273.15 69.56 275.93 55.25 275.00 43.00
C 282.15 44.78 290.83 44.45 298.00 43.00
M 955.00 46.00 
C 953.03 54.00 954.32 63.02 955.00 71.00 C 955.67 78.99 954.97 89.78 954.07 97.07 C 953.17 104.37 952.87 116.15 958.30 110.30 C 963.73 104.45 965.26 100.34 972.08 97.08 C 978.90 93.82 984.18 90.14 991.23 89.79 C 998.28 89.43 1004.64 89.58 1010.10 91.91 C 1015.56 94.23 1023.32 96.37 1028.23 100.77 C 1033.14 105.17 1038.00 108.65 1041.30 114.70 C 1044.60 120.75 1048.15 124.72 1049.12 129.90 C 1050.08 135.08 1052.22 140.32 1052.02 147.03 C 1051.82 153.74 1052.75 160.17 1049.88 165.90 C 1047.01 171.63 1050.33 172.80 1045.23 180.23 C 1040.13 187.66 1028.14 200.64 1020.30 203.31 C 1012.47 205.98 1010.89 208.48 1003.92 209.06 C 996.94 209.64 992.78 209.84 985.90 208.09 C 979.02 206.35 976.39 204.48 969.77 201.23 C 963.15 197.98 962.69 191.22 956.70 187.30 C 950.70 183.39 953.85 198.84 954.00 205.00 C 954.15 211.17 936.81 206.54 932.00 209.00
C 929.31 199.07 931.91 190.25 932.00 180.00 C 932.09 169.75 931.98 158.54 932.00 148.00 C 932.02 137.46 932.05 126.75 932.00 116.00 C 931.95 105.25 932.16 96.16 932.00 85.00 C 931.84 73.84 932.13 65.79 931.00 54.00 C 929.87 42.21 945.93 46.49 955.00 46.00
M 649.00 91.00 
C 646.43 97.91 642.91 104.67 639.00 111.00
C 628.25 105.01 621.26 99.98 611.08 98.87 C 600.90 97.76 585.56 96.63 581.60 107.75 C 577.64 118.86 584.78 126.86 594.92 129.13 C 605.05 131.40 613.30 135.97 624.22 139.78 C 635.14 143.59 643.86 151.14 647.79 160.23 C 651.71 169.32 651.42 181.98 646.08 192.08 C 640.74 202.18 629.82 207.54 620.10 210.12 C 610.38 212.70 598.20 212.99 587.99 210.01 C 577.78 207.03 571.70 204.33 559.77 200.23 C 547.84 196.13 552.17 183.18 560.00 174.00
C 567.23 181.15 578.43 184.38 586.22 188.22 C 594.02 192.06 604.26 190.95 613.75 190.40 C 623.24 189.84 632.29 176.71 624.23 166.77 C 616.17 156.83 608.93 158.64 598.92 155.93 C 588.91 153.22 578.42 149.15 568.77 143.23 C 559.12 137.31 556.73 127.22 557.00 117.00 C 557.27 106.78 559.37 98.12 568.25 90.25 C 577.13 82.38 584.89 80.10 594.03 78.98 C 603.17 77.86 613.56 77.97 621.68 80.66 C 629.80 83.35 639.57 85.46 649.00 91.00
M 528.00 209.00 
C 519.76 206.45 510.05 209.05 502.00 208.00
C 506.12 198.49 501.01 189.88 494.25 198.25 C 487.48 206.62 481.63 206.06 474.11 210.11 C 466.59 214.15 459.44 210.78 451.00 211.00 C 442.56 211.22 436.48 207.58 428.75 203.25 C 421.02 198.91 418.93 190.81 417.02 183.98 C 415.12 177.14 414.40 170.42 416.91 163.90 C 419.42 157.39 422.00 150.49 428.70 145.70 C 435.41 140.92 442.63 137.30 449.77 135.43 C 456.91 133.55 469.00 135.88 478.00 135.00 C 487.00 134.12 492.19 132.90 502.00 134.00
C 501.77 124.91 501.81 119.68 498.69 112.30 C 495.57 104.93 487.17 102.04 480.77 101.21 C 474.37 100.38 465.42 97.20 458.97 100.02 C 452.53 102.85 444.36 105.01 437.77 109.77 C 431.18 114.53 426.34 102.56 424.69 96.31 C 423.05 90.05 436.65 85.96 442.07 84.07 C 447.50 82.18 453.36 81.12 459.08 79.94 C 464.81 78.76 477.24 76.27 484.08 78.07 C 490.92 79.86 496.38 82.55 503.25 85.75 C 510.13 88.94 514.70 94.09 518.92 101.08 C 523.15 108.06 523.88 112.60 525.00 120.00 C 526.12 127.40 527.70 137.23 527.00 147.00 C 526.30 156.77 527.22 167.96 527.00 178.00 C 526.78 188.04 526.48 199.28 528.00 209.00
M 773.00 112.00 
C 768.46 117.61 761.92 121.50 756.00 125.00
C 740.70 108.09 717.77 103.13 699.92 117.92 C 682.06 132.70 682.58 164.81 699.75 180.25 C 716.93 195.68 743.08 192.03 757.00 173.00
C 762.62 176.29 767.16 181.32 773.00 184.00
C 758.36 210.05 729.23 213.63 704.98 206.02 C 680.72 198.42 663.06 169.45 664.00 147.00 C 664.94 124.55 682.70 100.13 706.08 92.94 C 729.46 85.74 754.31 89.40 773.00 112.00
M 814.00 91.00 
C 815.48 106.57 813.74 126.54 813.02 142.02 C 812.31 157.51 810.53 174.70 822.75 184.25 C 834.98 193.79 848.27 191.33 860.25 185.24 C 872.22 179.16 877.91 160.84 875.00 146.00 C 872.09 131.16 879.43 106.48 874.00 92.00
C 881.93 92.61 890.51 90.75 898.00 93.00
C 896.96 129.95 895.91 170.27 898.00 208.00
C 891.03 207.58 882.37 210.54 875.00 208.00
C 877.21 202.15 875.42 195.26 876.00 189.00
C 868.85 191.32 859.78 204.89 852.10 207.10 C 844.42 209.31 833.08 212.33 824.78 209.78 C 816.48 207.23 808.64 204.14 801.75 195.25 C 794.86 186.35 793.69 180.16 792.35 171.30 C 791.01 162.45 789.98 147.29 792.26 135.26 C 794.54 123.23 792.10 105.81 793.00 93.00
C 802.17 94.02 806.92 91.68 814.00 91.00
M 185.00 136.00 
C 180.06 139.69 172.85 140.19 166.00 140.00
C 164.81 147.41 163.72 150.94 163.00 158.00
C 157.00 154.48 163.60 144.09 159.22 140.78 C 154.85 137.47 147.52 140.07 142.00 138.00
C 143.72 132.02 156.94 138.99 159.74 133.74 C 162.54 128.50 158.32 121.59 162.00 116.00
C 166.64 120.18 160.06 130.50 164.78 134.22 C 169.50 137.94 179.39 133.49 185.00 136.00
M 30.00 206.00 
C 26.57 205.27 23.62 204.04 20.00 203.00
C 18.50 202.86 17.56 201.97 16.00 202.00
C 16.47 200.66 19.58 200.43 20.00 202.00
C 23.87 202.39 26.32 202.50 30.00 203.00
C 87.54 210.90 132.13 191.66 179.70 178.65 C 227.27 165.63 272.19 148.03 334.00 158.00
C 294.14 157.10 255.35 164.06 224.32 174.32 C 193.29 184.58 167.80 193.40 136.97 201.02 C 106.15 208.64 66.21 214.52 30.00 206.00
M 301.00 168.00 
C 298.82 176.86 301.38 186.42 311.02 188.98 C 320.67 191.53 325.69 186.65 335.00 183.00
C 337.33 192.25 343.42 202.19 331.92 206.92 C 320.42 211.65 313.98 212.80 305.96 211.03 C 297.94 209.25 288.24 209.26 282.08 199.92 C 275.93 190.57 276.36 182.08 274.00 172.00
C 282.28 171.42 290.81 169.17 301.00 168.00
M 244.00 179.00 
C 247.19 189.26 252.49 198.83 256.00 209.00
C 248.06 209.08 232.62 205.57 223.00 210.00
C 221.06 202.13 217.72 197.10 215.00 190.00
C 224.48 184.65 234.24 184.78 244.00 179.00 Z"/>
</g>
<g fill="#000000" fill-opacity="0.98" stroke="None">
<path d="
M 179.00 24.00 
C 166.81 24.28 148.53 20.21 144.31 32.31 C 140.09 44.41 136.54 51.88 131.77 62.77 C 127.00 73.66 124.03 81.68 120.92 90.92 C 117.82 100.17 112.06 110.19 109.30 118.30 C 106.55 126.42 100.35 137.61 97.13 145.08 C 93.91 152.55 90.44 161.78 86.30 171.30 C 82.16 180.81 79.87 183.57 76.00 194.00
C 87.36 192.62 94.12 187.71 103.98 187.02 C 113.84 186.34 113.73 171.61 118.68 162.68 C 123.62 153.74 124.21 146.46 128.68 137.68 C 133.15 128.90 135.50 119.74 139.23 111.23 C 142.96 102.72 146.85 94.26 151.02 84.02 C 155.20 73.79 157.93 68.95 161.00 58.00
C 169.74 63.50 170.11 75.54 174.69 84.31 C 179.28 93.07 181.81 102.17 185.69 110.31 C 189.58 118.44 193.41 130.14 196.65 137.30 C 199.88 144.46 202.23 153.09 203.00 160.00
C 215.02 156.63 222.35 156.06 234.00 153.00
C 212.76 110.49 195.97 68.45 179.00 24.00 Z"/>
</g>
<g fill="#000000" fill-opacity="0.98" stroke="None">
<path d="
M 363.00 210.00 
C 371.81 208.86 389.02 214.09 387.00 201.00 C 384.98 187.91 387.75 180.96 388.00 169.00 C 388.25 157.04 386.55 146.79 387.00 135.00 C 387.45 123.21 386.93 112.68 387.00 101.00 C 387.07 89.32 387.22 77.68 387.00 66.00 C 386.78 54.32 387.40 43.45 388.00 32.00 C 388.59 20.55 369.00 30.87 362.00 26.00
C 361.46 87.40 363.73 149.38 363.00 210.00 Z"/>
</g>
<g fill="#000000" fill-opacity="0.98" stroke="None">
<path d="
M 298.00 43.00 
C 290.83 44.45 282.15 44.78 275.00 43.00
C 275.93 55.25 273.15 69.56 275.00 82.00
C 263.12 82.02 254.43 78.78 255.00 93.00 C 255.57 107.22 263.86 99.07 275.00 101.00
C 275.65 116.92 273.68 133.50 276.00 149.00
C 283.82 146.74 292.74 148.61 301.00 148.00
C 300.65 132.41 299.57 117.38 299.00 101.00
C 310.28 99.88 322.39 103.13 335.00 102.00
C 332.79 95.84 334.58 88.60 334.00 82.00
C 324.11 83.58 319.40 79.89 309.00 82.00 C 298.60 84.11 298.14 75.74 299.00 67.00 C 299.86 58.26 299.16 51.12 298.00 43.00 Z"/>
</g>
<g fill="#000000" fill-opacity="0.98" stroke="None">
<path d="
M 955.00 46.00 
C 945.93 46.49 929.87 42.21 931.00 54.00 C 932.13 65.79 931.84 73.84 932.00 85.00 C 932.16 96.16 931.95 105.25 932.00 116.00 C 932.05 126.75 932.02 137.46 932.00 148.00 C 931.98 158.54 932.09 169.75 932.00 180.00 C 931.91 190.25 929.31 199.07 932.00 209.00
C 936.81 206.54 954.15 211.17 954.00 205.00 C 953.85 198.84 950.70 183.39 956.70 187.30 C 962.69 191.22 963.15 197.98 969.77 201.23 C 976.39 204.48 979.02 206.35 985.90 208.09 C 992.78 209.84 996.94 209.64 1003.92 209.06 C 1010.89 208.48 1012.47 205.98 1020.30 203.31 C 1028.14 200.64 1040.13 187.66 1045.23 180.23 C 1050.33 172.80 1047.01 171.63 1049.88 165.90 C 1052.75 160.17 1051.82 153.74 1052.02 147.03 C 1052.22 140.32 1050.08 135.08 1049.12 129.90 C 1048.15 124.72 1044.60 120.75 1041.30 114.70 C 1038.00 108.65 1033.14 105.17 1028.23 100.77 C 1023.32 96.37 1015.56 94.23 1010.10 91.91 C 1004.64 89.58 998.28 89.43 991.23 89.79 C 984.18 90.14 978.90 93.82 972.08 97.08 C 965.26 100.34 963.73 104.45 958.30 110.30 C 952.87 116.15 953.17 104.37 954.07 97.07 C 954.97 89.78 955.67 78.99 955.00 71.00 C 954.32 63.02 953.03 54.00 955.00 46.00
M 987.00 109.00 
C 1002.77 108.39 1020.32 117.02 1025.40 132.75 C 1030.48 148.47 1033.45 166.32 1019.25 180.25 C 1005.04 194.17 986.60 194.20 970.77 185.23 C 954.95 176.26 951.21 157.71 953.57 141.23 C 955.94 124.75 971.00 109.62 987.00 109.00 Z"/>
</g>
<g fill="#000000" fill-opacity="0.98" stroke="None">
<path d="
M 649.00 91.00 
C 639.57 85.46 629.80 83.35 621.68 80.66 C 613.56 77.97 603.17 77.86 594.03 78.98 C 584.89 80.10 577.13 82.38 568.25 90.25 C 559.37 98.12 557.27 106.78 557.00 117.00 C 556.73 127.22 559.12 137.31 568.77 143.23 C 578.42 149.15 588.91 153.22 598.92 155.93 C 608.93 158.64 616.17 156.83 624.23 166.77 C 632.29 176.71 623.24 189.84 613.75 190.40 C 604.26 190.95 594.02 192.06 586.22 188.22 C 578.43 184.38 567.23 181.15 560.00 174.00
C 552.17 183.18 547.84 196.13 559.77 200.23 C 571.70 204.33 577.78 207.03 587.99 210.01 C 598.20 212.99 610.38 212.70 620.10 210.12 C 629.82 207.54 640.74 202.18 646.08 192.08 C 651.42 181.98 651.71 169.32 647.79 160.23 C 643.86 151.14 635.14 143.59 624.22 139.78 C 613.30 135.97 605.05 131.40 594.92 129.13 C 584.78 126.86 577.64 118.86 581.60 107.75 C 585.56 96.63 600.90 97.76 611.08 98.87 C 621.26 99.98 628.25 105.01 639.00 111.00
C 642.91 104.67 646.43 97.91 649.00 91.00 Z"/>
</g>
<g fill="#000000" fill-opacity="0.98" stroke="None">
<path d="
M 528.00 209.00 
C 526.48 199.28 526.78 188.04 527.00 178.00 C 527.22 167.96 526.30 156.77 527.00 147.00 C 527.70 137.23 526.12 127.40 525.00 120.00 C 523.88 112.60 523.15 108.06 518.92 101.08 C 514.70 94.09 510.13 88.94 503.25 85.75 C 496.38 82.55 490.92 79.86 484.08 78.07 C 477.24 76.27 464.81 78.76 459.08 79.94 C 453.36 81.12 447.50 82.18 442.07 84.07 C 436.65 85.96 423.05 90.05 424.69 96.31 C 426.34 102.56 431.18 114.53 437.77 109.77 C 444.36 105.01 452.53 102.85 458.97 100.02 C 465.42 97.20 474.37 100.38 480.77 101.21 C 487.17 102.04 495.57 104.93 498.69 112.30 C 501.81 119.68 501.77 124.91 502.00 134.00
C 492.19 132.90 487.00 134.12 478.00 135.00 C 469.00 135.88 456.91 133.55 449.77 135.43 C 442.63 137.30 435.41 140.92 428.70 145.70 C 422.00 150.49 419.42 157.39 416.91 163.90 C 414.40 170.42 415.12 177.14 417.02 183.98 C 418.93 190.81 421.02 198.91 428.75 203.25 C 436.48 207.58 442.56 211.22 451.00 211.00 C 459.44 210.78 466.59 214.15 474.11 210.11 C 481.63 206.06 487.48 206.62 494.25 198.25 C 501.01 189.88 506.12 198.49 502.00 208.00
C 510.05 209.05 519.76 206.45 528.00 209.00
M 503.00 150.00 
C 505.22 163.60 500.07 182.95 486.77 188.77 C 473.47 194.59 455.92 196.16 443.77 186.23 C 431.62 176.30 440.77 155.09 454.23 152.79 C 467.68 150.48 486.82 149.82 503.00 150.00 Z"/>
</g>
<g fill="#000000" fill-opacity="0.98" stroke="None">
<path d="
M 773.00 112.00 
C 754.31 89.40 729.46 85.74 706.08 92.94 C 682.70 100.13 664.94 124.55 664.00 147.00 C 663.06 169.45 680.72 198.42 704.98 206.02 C 729.23 213.63 758.36 210.05 773.00 184.00
C 767.16 181.32 762.62 176.29 757.00 173.00
C 743.08 192.03 716.93 195.68 699.75 180.25 C 682.58 164.81 682.06 132.70 699.92 117.92 C 717.77 103.13 740.70 108.09 756.00 125.00
C 761.92 121.50 768.46 117.61 773.00 112.00 Z"/>
</g>
<g fill="#000000" fill-opacity="0.98" stroke="None">
<path d="
M 814.00 91.00 
C 806.92 91.68 802.17 94.02 793.00 93.00
C 792.10 105.81 794.54 123.23 792.26 135.26 C 789.98 147.29 791.01 162.45 792.35 171.30 C 793.69 180.16 794.86 186.35 801.75 195.25 C 808.64 204.14 816.48 207.23 824.78 209.78 C 833.08 212.33 844.42 209.31 852.10 207.10 C 859.78 204.89 868.85 191.32 876.00 189.00
C 875.42 195.26 877.21 202.15 875.00 208.00
C 882.37 210.54 891.03 207.58 898.00 208.00
C 895.91 170.27 896.96 129.95 898.00 93.00
C 890.51 90.75 881.93 92.61 874.00 92.00
C 879.43 106.48 872.09 131.16 875.00 146.00 C 877.91 160.84 872.22 179.16 860.25 185.24 C 848.27 191.33 834.98 193.79 822.75 184.25 C 810.53 174.70 812.31 157.51 813.02 142.02 C 813.74 126.54 815.48 106.57 814.00 91.00 Z"/>
</g>
<g fill="#000000" fill-opacity="0.03" stroke="None">
<path d="
M 987.00 109.00 
C 971.00 109.62 955.94 124.75 953.57 141.23 C 951.21 157.71 954.95 176.26 970.77 185.23 C 986.60 194.20 1005.04 194.17 1019.25 180.25 C 1033.45 166.32 1030.48 148.47 1025.40 132.75 C 1020.32 117.02 1002.77 108.39 987.00 109.00 Z"/>
</g>
<g fill="#000000" fill-opacity="0.89" stroke="None">
<path d="
M 185.00 136.00 
C 179.39 133.49 169.50 137.94 164.78 134.22 C 160.06 130.50 166.64 120.18 162.00 116.00
C 158.32 121.59 162.54 128.50 159.74 133.74 C 156.94 138.99 143.72 132.02 142.00 138.00
C 147.52 140.07 154.85 137.47 159.22 140.78 C 163.60 144.09 157.00 154.48 163.00 158.00
C 163.72 150.94 164.81 147.41 166.00 140.00
C 172.85 140.19 180.06 139.69 185.00 136.00 Z"/>
</g>
<g fill="#000000" fill-opacity="0.04" stroke="None">
<path d="
M 503.00 150.00 
C 486.82 149.82 467.68 150.48 454.23 152.79 C 440.77 155.09 431.62 176.30 443.77 186.23 C 455.92 196.16 473.47 194.59 486.77 188.77 C 500.07 182.95 505.22 163.60 503.00 150.00 Z"/>
</g>
<g fill="#000000" fill-opacity="0.95" stroke="None">
<path d="
M 30.00 203.00 
C 30.49 203.58 29.60 205.34 30.00 206.00
C 66.21 214.52 106.15 208.64 136.97 201.02 C 167.80 193.40 193.29 184.58 224.32 174.32 C 255.35 164.06 294.14 157.10 334.00 158.00
C 272.19 148.03 227.27 165.63 179.70 178.65 C 132.13 191.66 87.54 210.90 30.00 203.00 Z"/>
</g>
<g fill="#000000" fill-opacity="0.96" stroke="None">
<path d="
M 301.00 168.00 
C 290.81 169.17 282.28 171.42 274.00 172.00
C 276.36 182.08 275.93 190.57 282.08 199.92 C 288.24 209.26 297.94 209.25 305.96 211.03 C 313.98 212.80 320.42 211.65 331.92 206.92 C 343.42 202.19 337.33 192.25 335.00 183.00
C 325.69 186.65 320.67 191.53 311.02 188.98 C 301.38 186.42 298.82 176.86 301.00 168.00 Z"/>
</g>
<g fill="#000000" fill-opacity="0.96" stroke="None">
<path d="
M 244.00 179.00 
C 234.24 184.78 224.48 184.65 215.00 190.00
C 217.72 197.10 221.06 202.13 223.00 210.00
C 232.62 205.57 248.06 209.08 256.00 209.00
C 252.49 198.83 247.19 189.26 244.00 179.00 Z"/>
</g>
<g fill="#000000" fill-opacity="0.32" stroke="None">
<path d="
M 20.00 203.00 
C 19.87 202.96 20.00 202.00 20.00 202.00
C 19.58 200.43 16.47 200.66 16.00 202.00
C 17.56 201.97 18.50 202.86 20.00 203.00 Z"/>
</g>
<g fill="#000000" fill-opacity="0.53" stroke="None">
<path d="
M 20.00 203.00 
C 23.62 204.04 26.57 205.27 30.00 206.00
C 29.60 205.34 30.49 203.58 30.00 203.00
C 26.32 202.50 23.87 202.39 20.00 202.00
C 20.00 202.00 19.87 202.96 20.00 203.00 Z"/>
</g>
</svg>